<?xml version="1.0" encoding="utf-8"?>
<!-- Generator: Adobe Illustrator 16.0.0, SVG Export Plug-In . SVG Version: 6.00 Build 0)  -->
<!DOCTYPE svg PUBLIC "-//W3C//DTD SVG 1.1//EN" "http://www.w3.org/Graphics/SVG/1.1/DTD/svg11.dtd">
<svg version="1.1" id="Layer_1" xmlns="http://www.w3.org/2000/svg" xmlns:xlink="http://www.w3.org/1999/xlink" x="0px" y="0px"
	 width="232px" height="185px" viewBox="0 0 232 185" enable-background="new 0 0 232 185" xml:space="preserve">
<g>
	<path fill="#333333" d="M229.623,111.711c-2.316-11.68-7.293-21.912-13.83-29.717L192.216,1l-17.869,61.387
		c-18.828-3.434-35.469-3.363-35.469-3.363c-20.855,0.432-37.733,3.889-50.923,8.258H1l32.55,43.555
		c-1.034,3.182-1.593,6.441-1.593,9.748c0,14.178,9.215,30.986,22.786,40.451c14.09,9.822,36.73,12.115,54.863,12.168
		c8.25,6.703,23.352,11.195,40.617,11.195c17.423,0,32.635-4.574,40.835-11.379c3.084,0.326,6.207,0.209,9.322-0.408
		C222.337,168.256,235.43,140.986,229.623,111.711z"/>
	<path fill="#7F72B1" d="M224.415,110.863c-2.623-13.779-9.307-26.043-18.331-33.656l-0.227-0.191l-0.119-0.125
		c-0.506-0.42-1.584-1.086-2.91-1.836c-3.487,7.746-10.806,11.068-10.806,11.068c-0.386-6.236-6.545-14.135-11.145-19.217
		c-3.041-0.693-6.067-1.277-9.012-1.77c0.983,17.623-9.838,30.543-9.838,30.543c-7.804-13.939-37.912-25.641-49.893-29.842
		c-4.749,0.988-9.148,2.145-13.203,3.406c6.353,10.746,4.34,22.314,4.34,22.314c-5.671-3.367-15.474-3.752-24.703-3.123
		c-6.386,11.41-10,24.355-10,38.084c0,12.23,2.881,23.83,8.014,34.287c9.881,3.381,22.786,5.145,38.162,5.145
		c17.206,0,33.404-6.949,44.435-19.072l4.406-4.842l3.598,5.518c7.501,11.52,18.12,18.396,28.407,18.396h0.003
		c1.601,0,3.204-0.164,4.771-0.488C218.645,161.688,229.432,137.195,224.415,110.863z M115.428,146.867
		c-1.939,0.385-4.11-0.752-4.851-2.547c-0.741-1.787,0.228-3.553,2.165-3.939c1.938-0.383,4.109,0.756,4.852,2.547
		C118.338,144.715,117.366,146.482,115.428,146.867z M113.207,107.248c0-1.828,0.553-3.527,1.504-4.939l16.058,3.193
		c0.109,0.566,0.17,1.148,0.17,1.746c0,4.896-3.966,8.867-8.865,8.867C117.177,116.115,113.207,112.145,113.207,107.248z
		 M130.195,160.15c-1.938,0.383-4.115-0.758-4.854-2.545c-0.743-1.793,0.229-3.555,2.166-3.941c1.938-0.383,4.11,0.754,4.852,2.547
		C133.103,157.998,132.131,159.762,130.195,160.15z M133.356,143.271c-1.938,0.387-4.11-0.754-4.852-2.545
		c-0.74-1.787,0.229-3.551,2.168-3.936c1.934-0.387,4.109,0.75,4.849,2.543C136.265,141.121,135.294,142.887,133.356,143.271z
		 M181.381,140.986c-1.551-0.307-2.325-1.717-1.734-3.15c0.593-1.428,2.333-2.34,3.883-2.033c1.552,0.307,2.325,1.719,1.731,3.152
		C184.668,140.385,182.931,141.295,181.381,140.986z M187.792,152.455c-0.594,1.432-2.331,2.348-3.879,2.035
		c-1.551-0.305-2.327-1.721-1.734-3.15c0.595-1.432,2.334-2.346,3.882-2.039C187.611,149.611,188.388,151.023,187.792,152.455z
		 M187.812,113.227c-3.672,0-6.65-2.979-6.65-6.648c0-0.449,0.047-0.889,0.133-1.311l12.04-2.395
		c0.711,1.059,1.128,2.332,1.128,3.705C194.462,110.248,191.483,113.227,187.812,113.227z M199.607,141.83
		c-0.597,1.432-2.333,2.344-3.884,2.033c-1.551-0.307-2.324-1.717-1.731-3.152c0.594-1.43,2.331-2.342,3.881-2.035
		C199.421,138.986,200.201,140.396,199.607,141.83z"/>
	<path fill="#4C3E8B" d="M160.364,152.455c-8.823,9.316-21.128,16.283-35.229,19.219c7.086,3.854,17.391,6.281,28.871,6.281
		c11.829,0,22.414-2.58,29.51-6.639C174.691,168.25,166.554,161.584,160.364,152.455z M59.604,90.949
		c-9.621,8.68-14.908,18.477-14.908,27.742c0,12.613,8.277,27.777,19.687,36.055c3.303,2.396,7.401,4.418,12.202,6.061
		c-5.132-10.457-8.014-22.057-8.014-34.287c0-13.729,3.614-26.674,10-38.084C70.993,88.951,63.803,90.152,59.604,90.949z"/>
	<path fill="#21236C" d="M174.648,127.455c-0.05-0.193-0.124-0.373-0.221-0.533c-0.473-1.037-2.075-1.152-4.019-1.291
		c-1.794-0.129-4.173-0.201-6.696-0.201c-2.521,0-4.901,0.072-6.692,0.201c-2.047,0.146-3.714,0.266-4.084,1.463
		c-0.037,0.086-0.063,0.176-0.084,0.27c-0.224,1.012,0.345,1.621,2.22,3.639c0.973,1.045,2.18,2.344,3.288,3.723
		c1.163,1.439,2.029,2.736,2.66,3.682c1.048,1.562,1.571,2.348,2.643,2.348c0.018,0,0.037,0,0.054-0.002
		c0.021,0.002,0.039,0.002,0.058,0.002c1.65,0,5.736-3.316,7.92-6.029C174.092,131.748,174.996,128.814,174.648,127.455z"/>
	<g>
		<path fill="#FFF576" d="M130.769,105.502c0.109,0.566,0.17,1.148,0.17,1.746c0,4.896-3.966,8.867-8.865,8.867
			c-4.896,0-8.866-3.971-8.866-8.867c0-1.828,0.553-3.527,1.504-4.939L93.807,98.15c-1.357,3.117-2.113,6.555-2.113,10.172
			c0,14.09,11.424,25.518,25.516,25.518c14.091,0,25.514-11.428,25.514-25.518c0-0.148-0.006-0.295-0.01-0.443L130.769,105.502z"/>
		<path fill="#FFF576" d="M209.009,99.754l-15.675,3.119c0.711,1.059,1.128,2.332,1.128,3.705c0,3.67-2.979,6.648-6.65,6.648
			s-6.65-2.979-6.65-6.648c0-0.449,0.047-0.889,0.133-1.311l1.872-0.373l-10.837,2.152c0,0.113-0.008,0.225-0.008,0.336
			c0,10.568,8.568,19.137,19.139,19.137c10.568,0,19.136-8.568,19.136-19.137C210.596,104.67,210.027,102.092,209.009,99.754z"/>
	</g>
	<path fill="#FFFFFF" d="M124.138,104.186l-2.799-0.559c-1.689,0.342-2.96,1.834-2.96,3.621c0,2.041,1.651,3.695,3.694,3.695
		c2.041,0,3.693-1.654,3.693-3.695C125.767,105.975,125.123,104.85,124.138,104.186z M188.36,103.861l-2.095,0.416
		c-0.739,0.498-1.224,1.342-1.224,2.301c0,1.531,1.238,2.773,2.77,2.773c1.532,0,2.771-1.242,2.771-2.773
		C190.582,105.232,189.629,104.115,188.36,103.861z"/>
</g>
</svg>
