<?xml version="1.0" encoding="utf-8"?>
<!-- Generator: Adobe Illustrator 16.0.0, SVG Export Plug-In . SVG Version: 6.00 Build 0)  -->
<!DOCTYPE svg PUBLIC "-//W3C//DTD SVG 1.1//EN" "http://www.w3.org/Graphics/SVG/1.1/DTD/svg11.dtd">
<svg version="1.1" id="Layer_1" xmlns="http://www.w3.org/2000/svg" xmlns:xlink="http://www.w3.org/1999/xlink" x="0px" y="0px"
	 width="512px" height="512px" viewBox="0 0 512 512" enable-background="new 0 0 512 512" xml:space="preserve">
<g>
	<path fill="#EC338E" d="M112,0c-8.837,0-16,7.164-16,16c0,8.838,7.163,16,16,16s16-7.162,16-16C128,7.164,120.837,0,112,0z"/>
	<g>
		<circle fill="#FFFFFF" cx="107.549" cy="16" r="3.549"/>
		<circle fill="#FFFFFF" cx="116.451" cy="16" r="3.549"/>
	</g>
</g>
<g>
	<path fill="#36609F" d="M16,0C7.164,0,0,7.164,0,16c0,8.838,7.164,16,16,16c8.837,0,16-7.162,16-16C32,7.164,24.837,0,16,0z"/>
	<path fill="#FFFFFF" d="M19.427,16.006h-2.242c0,3.582,0,7.994,0,7.994h-3.322c0,0,0-4.367,0-7.994h-1.58v-2.824h1.58v-1.828
		c0-1.309,0.621-3.354,3.353-3.354l2.461,0.01v2.742c0,0-1.496,0-1.786,0c-0.291,0-0.705,0.145-0.705,0.77v1.66h2.533L19.427,16.006
		z"/>
</g>
<g>
	<path fill="#00B9EA" d="M80,0c-8.836,0-16,7.164-16,16c0,8.838,7.164,16,16,16s16-7.162,16-16C96,7.164,88.836,0,80,0z"/>
	<path fill="#FFFFFF" d="M86.92,13.371c-0.895,5.035-5.889,9.301-7.392,10.275s-2.874-0.391-3.37-1.422
		c-0.57-1.178-2.275-7.555-2.722-8.082s-1.787,0.527-1.787,0.527L71,13.818c0,0,2.721-3.25,4.791-3.656
		c2.196-0.432,2.193,3.371,2.722,5.482c0.511,2.041,0.854,3.209,1.3,3.209c0.447,0,1.3-1.139,2.233-2.883
		c0.935-1.748-0.04-3.291-1.868-2.193C80.908,9.391,87.813,8.336,86.92,13.371z"/>
</g>
<g>
	<path fill="#2AA9E0" d="M48,0c-8.836,0-16,7.164-16,16c0,8.838,7.164,16,16,16s16-7.162,16-16C64,7.164,56.836,0,48,0z"/>
	<path fill="#FFFFFF" d="M55.362,13.737c0.007,0.141,0.01,0.281,0.01,0.424c0,4.338-3.302,9.34-9.34,9.34
		c-1.854,0-3.579-0.543-5.032-1.475c0.258,0.029,0.519,0.045,0.783,0.045c1.539,0,2.953-0.523,4.076-1.404
		c-1.436-0.027-2.648-0.977-3.065-2.279c0.2,0.037,0.405,0.059,0.617,0.059c0.3,0,0.59-0.041,0.864-0.115
		c-1.5-0.303-2.633-1.629-2.633-3.219c0-0.014,0-0.027,0-0.041c0.443,0.246,0.949,0.393,1.487,0.41
		c-0.881-0.588-1.46-1.594-1.46-2.732c0-0.602,0.162-1.166,0.444-1.65c1.618,1.986,4.038,3.293,6.766,3.43
		c-0.056-0.24-0.085-0.49-0.085-0.748c0-1.812,1.47-3.281,3.283-3.281c0.943,0,1.797,0.398,2.396,1.035
		c0.747-0.146,1.45-0.42,2.085-0.797c-0.246,0.768-0.766,1.41-1.443,1.816c0.664-0.078,1.297-0.256,1.885-0.516
		C56.561,12.696,56.004,13.274,55.362,13.737z"/>
</g>
</svg>
