<?xml version="1.0" encoding="utf-8"?>
<!-- Generator: Adobe Illustrator 16.0.0, SVG Export Plug-In . SVG Version: 6.00 Build 0)  -->
<!DOCTYPE svg PUBLIC "-//W3C//DTD SVG 1.1//EN" "http://www.w3.org/Graphics/SVG/1.1/DTD/svg11.dtd">
<svg version="1.1" id="Layer_1" xmlns="http://www.w3.org/2000/svg" xmlns:xlink="http://www.w3.org/1999/xlink" x="0px" y="0px"
	 width="23px" height="66px" viewBox="0 0 23 66" enable-background="new 0 0 23 66" xml:space="preserve">
<path fill="#333333" d="M13.346,1.651v57.381l6.59-6.591c0.244-0.243,0.682-0.243,0.924,0l1.385,1.384
	c0.242,0.243,0.242,0.68,0,0.923L12.174,64.818c-0.073,0.073-0.165,0.124-0.263,0.154c-0.003,0-0.007,0.001-0.009,0.003
	c-0.005,0.001-0.008,0.001-0.013,0.002c-0.221,0.059-0.473,0.006-0.638-0.159L1.183,54.749c-0.243-0.243-0.243-0.68,0-0.923
	l1.385-1.384c0.243-0.243,0.68-0.243,0.923,0l6.591,6.591V1.651C10.082,1.309,10.39,1,10.734,1h1.958
	C13.036,1,13.346,1.309,13.346,1.651z"/>
</svg>
