<?xml version="1.0" encoding="utf-8"?>
<!-- Generator: Adobe Illustrator 23.0.3, SVG Export Plug-In . SVG Version: 6.00 Build 0)  -->
<svg version="1.1" id="Layer_1" xmlns="http://www.w3.org/2000/svg" xmlns:xlink="http://www.w3.org/1999/xlink" x="0px" y="0px"
	 viewBox="0 0 512 512" style="enable-background:new 0 0 512 512;" xml:space="preserve">
<style type="text/css">
	.st0{fill:#36609F;}
	.st1{fill:#FFFFFF;}
	.st2{fill:#00B9EA;}
	.st3{fill:#2AA9E0;}
	.st4{fill:#FF0000;}
</style>
<g>
	<path class="st0" d="M16,0C7.2,0,0,7.2,0,16s7.2,16,16,16s16-7.2,16-16S24.8,0,16,0z"/>
	<path class="st1" d="M19.4,16h-2.2c0,3.6,0,8,0,8h-3.3c0,0,0-4.4,0-8h-1.6v-2.8h1.6v-1.8c0-1.3,0.6-3.4,3.4-3.4h2.5v2.7
		c0,0-1.5,0-1.8,0s-0.7,0.1-0.7,0.8v1.7h2.5L19.4,16z"/>
</g>
<g>
	<path class="st2" d="M80,0c-8.8,0-16,7.2-16,16s7.2,16,16,16s16-7.2,16-16S88.8,0,80,0z"/>
	<path class="st1" d="M86.9,13.4c-0.9,5-5.9,9.3-7.4,10.3s-2.9-0.4-3.4-1.4c-0.6-1.2-2.3-7.6-2.7-8.1s-1.8,0.5-1.8,0.5L71,13.8
		c0,0,2.7-3.3,4.8-3.7c2.2-0.4,2.2,3.4,2.7,5.5c0.5,2,0.9,3.2,1.3,3.2s1.3-1.1,2.2-2.9c0.9-1.7,0-3.3-1.9-2.2
		C80.9,9.4,87.8,8.3,86.9,13.4z"/>
</g>
<g>
	<path class="st3" d="M48,0c-8.8,0-16,7.2-16,16s7.2,16,16,16s16-7.2,16-16S56.8,0,48,0z"/>
	<path class="st1" d="M55.4,13.7c0,0.1,0,0.3,0,0.4c0,4.3-3.3,9.3-9.3,9.3c-1.9,0-3.6-0.5-5-1.5c0.3,0,0.5,0,0.8,0
		c1.5,0,3-0.5,4.1-1.4c-1.4,0-2.6-1-3.1-2.3c0.2,0,0.4,0.1,0.6,0.1c0.3,0,0.6,0,0.9-0.1c-1.5-0.3-2.6-1.6-2.6-3.2l0,0
		c0.4,0.2,0.9,0.4,1.5,0.4c-0.9-0.6-1.5-1.6-1.5-2.7c0-0.6,0.2-1.2,0.4-1.6c1.6,2,4,3.3,6.8,3.4c-0.1-0.2-0.1-0.5-0.1-0.7
		c0-1.8,1.5-3.3,3.3-3.3c0.9,0,1.8,0.4,2.4,1c0.7-0.1,1.5-0.4,2.1-0.8c-0.2,0.8-0.8,1.4-1.4,1.8c0.7-0.1,1.3-0.3,1.9-0.5
		C56.6,12.7,56,13.3,55.4,13.7z"/>
</g>
<g>
	<circle class="st4" cx="112" cy="16" r="16"/>
	<path class="st1" d="M120.2,9c-1.6-0.4-8.2-0.4-8.2-0.4s-6.6,0-8.2,0.4c-0.9,0.2-1.6,1-1.9,1.9c-0.4,1.7-0.4,5.1-0.4,5.1
		s0,3.5,0.4,5.1c0.2,0.9,1,1.6,1.9,1.8c1.6,0.4,8.2,0.4,8.2,0.4s6.6,0,8.2-0.4c0.9-0.2,1.6-0.9,1.9-1.8c0.4-1.7,0.4-5.1,0.4-5.1
		s0-3.5-0.4-5.1C121.9,10,121.2,9.3,120.2,9z M109.8,19.2v-6.3l5.5,3.1L109.8,19.2z"/>
</g>
</svg>
