<?xml version="1.0" encoding="UTF-8"?>
<svg width="161px" height="162px" viewBox="0 0 161 162" version="1.1" xmlns="http://www.w3.org/2000/svg" xmlns:xlink="http://www.w3.org/1999/xlink" xmlns:sketch="http://www.bohemiancoding.com/sketch/ns">
    <!-- Generator: Sketch 3.1.1 (8761) - http://www.bohemiancoding.com/sketch -->
    <title>container</title>
    <desc>Created with Sketch.</desc>
    <defs></defs>
    <g id="Page-1" stroke="none" stroke-width="1" fill="none" fill-rule="evenodd" sketch:type="MSPage">
        <g id="GRUSP-TuttifruttiPlus" sketch:type="MSLayerGroup" transform="translate(-579.000000, -50.000000)">
            <g id="container" transform="translate(579.000000, 51.000000)" sketch:type="MSShapeGroup">
                <path d="M71.637,142.569 L76.417,142.569 L76.417,155.397 L71.637,155.397 L71.637,142.569 Z M71.346,138.957 C71.346,137.469 72.541,136.275 74.028,136.275 C75.515,136.275 76.711,137.469 76.711,138.957 C76.711,140.444 75.515,141.64 74.028,141.64 C72.541,141.64 71.346,140.444 71.346,138.957 L71.346,138.957 Z" id="Fill-86" fill="#000000"></path>
                <path d="M87.7578,155.3965 L87.7578,148.3055 C87.7578,146.9775 87.0408,146.4725 85.8998,146.4725 C84.8098,146.4725 84.2528,147.0305 83.8538,147.4815 L83.8538,155.3965 L79.0728,155.3965 L79.0728,142.5685 L83.8538,142.5685 L83.8538,144.0295 C84.5978,143.1795 86.0058,142.2505 88.2628,142.2505 C91.2378,142.2505 92.5378,144.0555 92.5378,146.2875 L92.5378,155.3965 L87.7578,155.3965 Z" id="Fill-88" fill="#000000"></path>
                <path d="M101.3037,145.8887 C99.8427,145.8887 99.3657,146.8447 99.2057,147.4287 L103.4287,147.4287 C103.2957,146.8707 102.8447,145.8887 101.3037,145.8887 M94.3197,148.9697 C94.3197,145.2517 97.1617,142.2507 101.3037,142.2507 C105.0747,142.2507 107.9697,144.9587 107.9697,149.4737 L107.9697,150.4567 L99.2597,150.4567 C99.5257,151.2797 100.4527,152.0767 102.0217,152.0767 C102.7387,152.0767 104.3307,151.7307 104.9677,151.1737 L106.9337,154.1207 C105.6597,155.2107 103.3747,155.7147 101.4627,155.7147 C97.4527,155.7147 94.3197,153.1917 94.3197,148.9697" id="Fill-89" fill="#000000"></path>
                <path d="M109.6182,155.3965 L109.6182,142.5685 L114.3982,142.5685 L114.3982,143.9765 C115.1942,143.0465 116.8672,142.1975 118.3282,142.1975 L118.3282,146.7655 C118.0902,146.6855 117.6912,146.6325 117.2402,146.6325 C116.2302,146.6325 114.9292,146.8975 114.3982,147.5345 L114.3982,155.3965 L109.6182,155.3965 Z" id="Fill-90" fill="#000000"></path>
                <path d="M129.9355,151.8906 L129.9355,146.1006 C129.2455,144.9856 127.6785,144.0296 126.1115,144.0296 C123.5085,144.0296 121.9675,146.1546 121.9675,148.9956 C121.9675,151.8376 123.5085,153.9356 126.1115,153.9356 C127.6785,153.9356 129.2455,153.0066 129.9355,151.8906 L129.9355,151.8906 Z M129.9355,155.3966 L129.9355,153.4846 C128.9795,154.7856 127.4135,155.7146 125.6065,155.7146 C122.2595,155.7146 119.8965,153.1646 119.8965,148.9956 C119.8965,144.8796 122.2595,142.2506 125.6065,142.2506 C127.3325,142.2506 128.8995,143.0996 129.9355,144.5076 L129.9355,137.6826 L131.9275,137.6826 L131.9275,155.3966 L129.9355,155.3966 Z" id="Fill-91" fill="#000000"></path>
                <path d="M144.543,151.8906 L144.543,146.1006 C143.853,144.9856 142.286,144.0296 140.719,144.0296 C138.116,144.0296 136.576,146.1546 136.576,148.9956 C136.576,151.8376 138.116,153.9356 140.719,153.9356 C142.286,153.9356 143.853,153.0066 144.543,151.8906 L144.543,151.8906 Z M144.543,155.3966 L144.543,153.4846 C143.587,154.7856 142.021,155.7146 140.214,155.7146 C136.867,155.7146 134.504,153.1646 134.504,148.9956 C134.504,144.8796 136.867,142.2506 140.214,142.2506 C141.94,142.2506 143.508,143.0996 144.543,144.5076 L144.543,142.5686 L146.535,142.5686 L146.535,155.3966 L144.543,155.3966 Z" id="Fill-92" fill="#000000"></path>
                <path d="M149.458,158.6099 C149.75,158.7429 150.228,158.8219 150.547,158.8219 C151.423,158.8219 152.008,158.5299 152.459,157.4679 L153.309,155.5289 L147.943,142.5689 L150.121,142.5689 L154.37,153.0859 L158.646,142.5689 L160.798,142.5689 L154.37,157.9989 C153.601,159.8589 152.299,160.5759 150.601,160.6019 C150.175,160.6019 149.511,160.5219 149.165,160.4159 L149.458,158.6099 Z" id="Fill-93" fill="#000000"></path>
                <path d="M132.8711,88.9678 L132.8711,73.0308 C132.8711,71.7878 131.8611,70.7778 130.6191,70.7778 L116.5581,70.7778 C115.3151,70.7778 114.3061,71.7878 114.3061,73.0308 L114.3061,77.3698 C114.3061,78.7128 113.5831,79.9648 112.4191,80.6368 L82.2891,98.0318 C81.1421,98.6928 79.6651,98.6948 78.5171,98.0328 L48.3861,80.6378 C47.2231,79.9658 46.5001,78.7138 46.5001,77.3698 L46.5001,42.5798 C46.5001,41.2368 47.2231,39.9848 48.3861,39.3128 L78.5161,21.9178 C79.6621,21.2558 81.1461,21.2568 82.2881,21.9178 L83.2931,22.4978 C83.9771,22.8918 84.8611,22.8918 85.5481,22.4978 C86.2421,22.0968 86.6731,21.3488 86.6731,20.5458 L86.6731,4.3088 C86.6731,3.5068 86.2421,2.7588 85.5471,2.3568 L81.5291,0.0378 C81.1861,-0.1592 80.7971,-0.2642 80.4011,-0.2642 C80.0081,-0.2642 79.6181,-0.1592 79.2741,0.0388 L29.0591,29.0298 C28.3631,29.4328 27.9321,30.1808 27.9321,30.9818 L27.9321,88.9678 C27.9321,89.7698 28.3631,90.5168 29.0591,90.9198 L79.2751,119.9108 C79.9631,120.3078 80.8491,120.3058 81.5281,119.9118 L131.7461,90.9198 C132.4401,90.5178 132.8711,89.7698 132.8711,88.9678" id="Fill-94" fill="#F8941E"></path>
                <path d="M91.2041,64.0337 C91.2041,65.3767 90.4811,66.6287 89.3181,67.3007 L82.2891,71.3597 C81.7181,71.6907 81.0641,71.8657 80.4011,71.8657 C79.7411,71.8657 79.0891,71.6907 78.5161,71.3597 L71.4851,67.3007 C70.3221,66.6287 69.6001,65.3767 69.6001,64.0337 L69.6001,55.9157 C69.6001,54.5717 70.3221,53.3197 71.4851,52.6497 L78.5161,48.5897 C79.6671,47.9277 81.1441,47.9297 82.2891,48.5897 L89.3181,52.6497 C90.4811,53.3197 91.2041,54.5717 91.2041,55.9157 L91.2041,64.0337 Z M108.6451,15.6947 L94.5841,7.5767 C93.8991,7.1817 93.0141,7.1837 92.3311,7.5767 C91.6371,7.9787 91.2041,8.7277 91.2041,9.5287 L91.2041,30.9827 C91.2041,31.2547 91.0591,31.5047 90.8241,31.6407 C90.5891,31.7757 90.3011,31.7757 90.0651,31.6407 L81.5291,26.7117 C81.1871,26.5147 80.7981,26.4097 80.4011,26.4097 C80.0071,26.4097 79.6171,26.5147 79.2741,26.7117 L52.1591,42.3677 C51.4641,42.7697 51.0311,43.5167 51.0311,44.3187 L51.0311,75.6307 C51.0311,76.4317 51.4641,77.1797 52.1591,77.5827 L79.2751,93.2377 C79.9621,93.6357 80.8491,93.6327 81.5281,93.2377 L108.6451,77.5827 C109.3411,77.1807 109.7721,76.4327 109.7721,75.6307 L109.7721,17.6467 C109.7721,16.8447 109.3401,16.0957 108.6451,15.6947 L108.6451,15.6947 Z" id="Fill-95" fill="#F8941E"></path>
                <path d="M114.3057,22.8638 L114.3057,46.9188 C114.3057,48.1608 115.3157,49.1718 116.5577,49.1718 L130.6187,49.1718 C131.8617,49.1718 132.8707,48.1608 132.8707,46.9188 L132.8707,30.9818 C132.8707,30.1798 132.4407,29.4318 131.7447,29.0298 L117.6837,20.9118 C117.3417,20.7148 116.9527,20.6108 116.5577,20.6108 C116.1617,20.6108 115.7737,20.7148 115.4307,20.9118 C114.7367,21.3138 114.3057,22.0608 114.3057,22.8638" id="Fill-96" fill="#F8941E"></path>
                <path d="M0.0059,148.9697 C0.0059,144.9057 3.1399,142.2507 7.2029,142.2507 C10.1239,142.2507 11.9299,143.5787 12.6489,144.6667 L9.5669,147.5617 C9.1689,146.9507 8.4249,146.4727 7.4149,146.4727 C6.0619,146.4727 4.8929,147.3227 4.8929,148.9697 C4.8929,150.6157 6.0619,151.4927 7.4149,151.4927 C8.4249,151.4927 9.1689,150.9617 9.5669,150.3767 L12.6489,153.2977 C11.9299,154.3607 10.1239,155.7147 7.2029,155.7147 C3.1399,155.7147 0.0059,153.0587 0.0059,148.9697" id="Fill-76" fill="#000000"></path>
                <path d="M22.8467,148.9697 C22.8467,147.5617 22.0227,146.4727 20.5357,146.4727 C19.0757,146.4727 18.2517,147.5617 18.2517,148.9697 C18.2517,150.4037 19.0757,151.4927 20.5357,151.4927 C22.0227,151.4927 22.8467,150.4037 22.8467,148.9697 M13.3387,148.9697 C13.3387,145.3847 15.9947,142.2507 20.5357,142.2507 C25.1047,142.2507 27.7587,145.3847 27.7587,148.9697 C27.7587,152.5537 25.1047,155.7147 20.5357,155.7147 C15.9947,155.7147 13.3387,152.5537 13.3387,148.9697" id="Fill-78" fill="#000000"></path>
                <path d="M38.2246,155.3965 L38.2246,148.3055 C38.2246,146.9775 37.5076,146.4725 36.3666,146.4725 C35.2776,146.4725 34.7196,147.0305 34.3216,147.4815 L34.3216,155.3965 L29.5406,155.3965 L29.5406,142.5685 L34.3216,142.5685 L34.3216,144.0295 C35.0656,143.1795 36.4726,142.2505 38.7296,142.2505 C41.7036,142.2505 43.0046,144.0555 43.0046,146.2875 L43.0046,155.3965 L38.2246,155.3965 Z" id="Fill-80" fill="#000000"></path>
                <path d="M46.6445,151.6782 L46.6445,146.7122 L44.5215,146.7122 L44.5215,142.5692 L46.6445,142.5692 L46.6445,139.0632 L51.4255,139.0632 L51.4255,142.5692 L54.0285,142.5692 L54.0285,146.7122 L51.4255,146.7122 L51.4255,150.2972 C51.4255,150.9612 51.8505,151.4922 52.4875,151.4922 C52.9125,151.4922 53.3365,151.3602 53.4435,151.2532 L54.2925,154.8652 C53.7895,155.3162 52.6725,155.7152 51.0535,155.7152 C48.2115,155.7152 46.6445,154.3602 46.6445,151.6782" id="Fill-82" fill="#000000"></path>
                <path d="M64.1992,150.6162 L64.1992,147.3492 C63.7482,146.7912 62.8452,146.4992 62.2072,146.4992 C60.9072,146.4992 59.8182,147.3762 59.8182,148.9702 C59.8182,150.5622 60.9072,151.4922 62.2072,151.4922 C62.8452,151.4922 63.7482,151.1732 64.1992,150.6162 L64.1992,150.6162 Z M64.1992,155.3962 L64.1992,154.0412 C63.1112,155.2632 61.8892,155.7152 60.5882,155.7152 C57.4802,155.7152 54.9312,153.3782 54.9312,148.9702 C54.9312,144.7202 57.4272,142.2502 60.5882,142.2502 C61.8892,142.2502 63.1652,142.7012 64.1732,143.9232 L64.1732,142.5692 L68.9792,142.5692 L68.9792,155.3962 L64.1992,155.3962 Z" id="Fill-84" fill="#000000"></path>
            </g>
        </g>
    </g>
</svg>