<?xml version="1.0" encoding="UTF-8"?>
<svg width="139px" height="111px" viewBox="0 0 139 111" version="1.1" xmlns="http://www.w3.org/2000/svg" xmlns:xlink="http://www.w3.org/1999/xlink" xmlns:sketch="http://www.bohemiancoding.com/sketch/ns">
    <!-- Generator: Sketch 3.1.1 (8761) - http://www.bohemiancoding.com/sketch -->
    <title>cssday</title>
    <desc>Created with Sketch.</desc>
    <defs></defs>
    <g id="Page-1" stroke="none" stroke-width="1" fill="none" fill-rule="evenodd" sketch:type="MSPage">
        <g id="GRUSP-TuttifruttiPlus" sketch:type="MSLayerGroup" transform="translate(-590.000000, -352.000000)">
            <g id="cssday" transform="translate(590.000000, 353.000000)" sketch:type="MSShapeGroup">
                <path d="M62.2002,30.7144 L78.5252,14.3894 L64.0032,-0.1336 L33.1472,30.7224 L33.1962,30.7714 L33.1472,30.8204 L47.6122,45.2864 L31.3362,61.5634 L45.8582,76.0854 L62.1352,59.8094 L62.1922,59.8654 L76.7142,45.3434 L76.6572,45.2864 L76.7142,45.2294 L62.2002,30.7144 Z" id="Fill-98" fill="#000000"></path>
                <path d="M43.9756,16.2056 L29.4586,1.6926 L0.4096,30.6906 L0.4206,30.7026 L0.4056,30.7186 L29.4546,59.7356 L43.9756,45.2136 L29.4656,30.7026 L43.9756,16.2056 Z" id="Fill-99" fill="#000000"></path>
                <path d="M95.2568,30.7144 L111.5808,14.3894 L97.0598,-0.1336 L66.2038,30.7224 L66.2518,30.7714 L66.2038,30.8204 L80.6688,45.2864 L64.3928,61.5634 L78.9148,76.0854 L95.1908,59.8094 L95.2478,59.8654 L109.7708,45.3434 L109.7128,45.2864 L109.7708,45.2294 L95.2568,30.7144 Z" id="Fill-100" fill="#000000"></path>
                <path d="M0.2188,65.3037 L14.7368,50.7917 L43.7848,79.7887 L43.7738,79.8007 L43.7898,79.8177 L14.7408,108.8337 L0.2188,94.3117 L14.7298,79.8007 L0.2188,65.3037 Z" id="Fill-101" fill="#E5581E"></path>
                <path d="M109.5605,108.4844 L109.5765,108.4674 L109.5875,108.4794 L118.2065,99.8434 L109.5585,108.4824 L109.5605,108.4844 Z" id="Fill-102" fill="#E5581E"></path>
                <path d="M124.1035,93.9219 L124.1115,93.9289 L138.5845,79.4299 L124.0725,64.9129 L109.5895,79.4099 L124.1165,93.9099 L124.1035,93.9219 Z" id="Fill-103" fill="#E5581E"></path>
                <path d="M80.5508,79.4268 L80.5428,79.4348 L95.0368,93.9448 L95.0598,93.9218 L80.5508,79.4268 Z" id="Fill-104" fill="#E5581E"></path>
                <path d="M109.5898,79.4102 L95.0658,64.9132 L109.5758,79.4242 L109.5898,79.4102 Z" id="Fill-105" fill="#E5581E"></path>
                <path d="M80.5488,108.4326 L109.5588,108.4826 L95.0368,93.9446 L80.5488,108.4326 Z" id="Fill-106" fill="#E5581E"></path>
                <path d="M124.1113,93.9287 L118.2073,99.8437 L124.1203,93.9377 L124.1113,93.9287 Z" id="Fill-107" fill="#E5581E"></path>
                <path d="M80.5488,79.4248 L80.5508,79.4268 L95.0658,64.9128 L80.5488,79.4248 Z" id="Fill-108" fill="#E5581E"></path>
                <path d="M124.1035,93.9219 L124.1165,93.9099 L109.5895,79.4099 L109.5765,79.4239 L95.0655,64.9129 L80.5505,79.4269 L95.0595,93.9219 L95.0375,93.9439 L109.5585,108.4829 L118.2075,99.8439 L124.1115,93.9289 L124.1035,93.9219 Z" id="Fill-109" fill="#E5581E"></path>
                <path d="M47.8662,108.377 L33.3542,93.86 L62.3512,64.811 L62.3632,64.822 L62.3792,64.807 L91.3962,93.856 L76.8732,108.377 L62.3632,93.867 L47.8662,108.377 Z" id="Fill-110" fill="#E5581E"></path>
                <path d="M0.6836,65.6963 L15.2006,51.1833 L44.2496,80.1813 L44.2386,80.1933 L44.2536,80.2093 L15.2046,109.2263 L0.6836,94.7043 L15.1946,80.1933 L0.6836,65.6963 Z" id="Fill-111" fill="#E5581E"></path>
            </g>
        </g>
    </g>
</svg>