<?xml version="1.0" encoding="UTF-8"?>
<svg width="171px" height="107px" viewBox="0 0 171 107" version="1.1" xmlns="http://www.w3.org/2000/svg" xmlns:xlink="http://www.w3.org/1999/xlink" xmlns:sketch="http://www.bohemiancoding.com/sketch/ns">
    <!-- Generator: Sketch 3.1.1 (8761) - http://www.bohemiancoding.com/sketch -->
    <title>jsday</title>
    <desc>Created with Sketch.</desc>
    <defs></defs>
    <g id="Page-1" stroke="none" stroke-width="1" fill="none" fill-rule="evenodd" sketch:type="MSPage">
        <g id="GRUSP-TuttifruttiPlus" sketch:type="MSLayerGroup" transform="translate(-307.000000, -355.000000)">
            <g id="jsday" transform="translate(307.000000, 356.000000)" sketch:type="MSShapeGroup">
                <path d="M153.124,11.6787 C148.927,4.4227 141.088,-0.4613 132.103,-0.4613 C123.119,-0.4613 115.28,4.4227 111.083,11.6777 L62.658,95.3727 C60.014,99.9547 56.253,103.4907 51.919,105.8377 L58.726,105.8377 C67.71,105.8377 75.548,100.9527 79.745,93.6987 L123.093,18.6137 C125.967,13.6367 132.33,11.9317 137.306,14.8047 C138.946,15.7517 140.229,17.0807 141.112,18.6137 L163.075,56.6577 L170.464,41.7117 L153.124,11.6787 Z M138.074,20.3477 C137.485,19.3247 136.63,18.4397 135.536,17.8077 C132.22,15.8917 127.978,17.0287 126.061,20.3467 C124.778,22.5697 124.867,25.2067 126.062,27.2817 L126.061,27.2827 L143.401,57.3167 L160.039,58.3897 L138.075,20.3467 L138.074,20.3477 Z M59.723,93.6987 L108.147,10.0037 C110.792,5.4217 114.553,1.8857 118.887,-0.4613 L112.08,-0.4613 C103.096,-0.4613 95.258,4.4227 91.06,11.6777 L47.712,86.7637 C44.839,91.7407 38.476,93.4447 33.5,90.5727 C31.857,89.6247 30.575,88.2957 29.692,86.7637 L7.731,48.7197 L0.341,63.6637 L17.682,93.6987 C21.878,100.9527 29.718,105.8377 38.701,105.8377 C47.686,105.8377 55.525,100.9527 59.723,93.6987 L59.723,93.6987 Z M32.694,85.0307 C34.609,88.3467 38.852,89.4847 42.169,87.5687 C45.487,85.6537 46.623,81.4097 44.709,78.0937 C44.706,78.0887 44.703,78.0847 44.7,78.0797 L27.369,48.0597 L10.731,46.9877 L32.692,85.0247 C32.693,85.0267 32.694,85.0287 32.694,85.0307 L32.694,85.0307 Z" id="Fill-64" fill="#5F509F"></path>
                <path d="M3.8916,2.1816 C3.8916,0.8916 5.0066,-0.1234 6.4246,-0.1234 C7.8146,-0.1234 8.9616,0.8916 8.9616,2.1816 C8.9616,3.4436 7.8146,4.4866 6.4246,4.4866 C5.0066,4.4866 3.8916,3.4436 3.8916,2.1816 M0.5716,23.6696 L1.5076,20.6226 C1.8696,20.9256 2.2606,21.0626 2.8336,21.0626 C3.6806,21.0626 4.2236,20.5416 4.2236,19.3326 L4.2236,5.7486 L8.5986,5.7486 L8.5986,19.3326 C8.5986,22.4076 7.0886,24.3826 3.3776,24.3826 C2.0496,24.3826 1.3566,24.1636 0.5716,23.6696" id="Fill-66" fill="#000000"></path>
                <path d="M10.4092,17.4126 L12.1612,14.6406 C13.1252,15.4636 14.8462,16.2326 16.2952,16.2326 C17.5612,16.2326 18.1672,15.8216 18.1672,15.1886 C18.1672,13.4606 10.9542,14.6956 10.9542,9.6196 C10.9542,7.3956 12.8862,5.4206 16.6262,5.4206 C18.7682,5.4206 20.6712,6.1066 22.0282,7.1206 L20.3372,9.8656 C19.6442,9.2066 18.2262,8.5206 16.6862,8.5206 C15.7222,8.5206 15.0282,8.9326 15.0282,9.4816 C15.0282,11.0186 22.3312,9.9746 22.3312,15.0796 C22.3312,17.5496 20.0662,19.3326 16.4152,19.3326 C13.8812,19.3326 11.6772,18.5376 10.4092,17.4126" id="Fill-68" fill="#000000"></path>
                <path d="M32.7744,14.5859 L32.7744,10.1399 C32.3234,9.4259 31.4164,8.9329 30.5714,8.9329 C28.9714,8.9329 28.0664,10.3319 28.0664,12.3619 C28.0664,14.4209 28.9714,15.8209 30.5714,15.8209 C31.4164,15.8209 32.3234,15.3269 32.7744,14.5859 L32.7744,14.5859 Z M32.7744,19.0049 L32.7744,17.4399 C31.8384,18.7309 30.4804,19.3329 29.1234,19.3329 C25.8334,19.3329 23.6014,16.8089 23.6014,12.3619 C23.6014,8.0539 25.8034,5.4209 29.1234,5.4209 C30.4804,5.4209 31.9004,5.9969 32.7744,7.3139 L32.7744,0.6999 L37.1214,0.6999 L37.1214,19.0049 L32.7744,19.0049 Z" id="Fill-70" fill="#000000"></path>
                <path d="M48.4707,14.5859 L48.4707,10.1679 C48.0167,9.4539 47.1127,8.9329 46.2687,8.9329 C44.6677,8.9329 43.7627,10.3319 43.7627,12.3619 C43.7627,14.4209 44.6677,15.8209 46.2687,15.8209 C47.1127,15.8209 48.0167,15.3269 48.4707,14.5859 L48.4707,14.5859 Z M48.4707,19.0049 L48.4707,17.4399 C47.5347,18.7309 46.1767,19.3329 44.8197,19.3329 C41.5307,19.3329 39.2957,16.8089 39.2957,12.3619 C39.2957,8.0539 41.4987,5.4209 44.8197,5.4209 C46.1767,5.4209 47.5637,5.9969 48.4397,7.3139 L48.4397,5.7489 L52.8157,5.7489 L52.8157,19.0049 L48.4707,19.0049 Z" id="Fill-72" fill="#000000"></path>
                <path d="M56.2891,20.6777 C56.5301,20.8157 56.9231,20.8697 57.1931,20.8697 C58.0091,20.8697 58.5511,20.6507 58.7931,20.1027 L59.1251,19.2237 L54.1151,5.7487 L58.7331,5.7487 L61.3581,14.2287 L64.0431,5.7487 L68.6611,5.7487 L62.9581,20.9807 C61.9321,23.6977 60.2111,24.3557 57.5871,24.3827 C57.1041,24.3827 56.1061,24.3017 55.6551,24.1637 L56.2891,20.6777 Z" id="Fill-74" fill="#000000"></path>
            </g>
        </g>
    </g>
</svg>