<?xml version="1.0" encoding="UTF-8"?>
<svg width="137px" height="117px" viewBox="0 0 137 117" version="1.1" xmlns="http://www.w3.org/2000/svg" xmlns:xlink="http://www.w3.org/1999/xlink" xmlns:sketch="http://www.bohemiancoding.com/sketch/ns">
    <!-- Generator: Sketch 3.1.1 (8761) - http://www.bohemiancoding.com/sketch -->
    <title>kerning</title>
    <desc>Created with Sketch.</desc>
    <defs></defs>
    <g id="Page-1" stroke="none" stroke-width="1" fill="none" fill-rule="evenodd" sketch:type="MSPage">
        <g id="GRUSP-TuttifruttiPlus" sketch:type="MSLayerGroup" transform="translate(-58.000000, -349.000000)">
            <g id="kerning" transform="translate(58.000000, 349.000000)" sketch:type="MSShapeGroup">
                <path d="M47.6782,105.7461 L43.1152,105.7461 L43.1152,100.7041 L47.6782,100.7061 C49.3262,100.7041 50.4072,101.6641 50.4072,103.2251 C50.4072,104.7251 49.3262,105.7461 47.6782,105.7461 L47.6782,105.7461 Z M50.7972,109.1961 C53.6182,108.3861 55.6252,106.1061 55.6252,103.0751 C55.6252,98.4841 52.5082,96.3251 47.7652,96.3251 L38.0752,96.3251 L38.0752,116.7251 L43.1152,116.7271 L43.1152,109.4961 L45.1562,109.4961 L51.3672,116.7251 L56.7392,116.7251 L56.7392,115.7681 L50.7972,109.1961 Z" id="Fill-34" fill="#000000"></path>
                <path d="M74.8091,108.7173 L64.5191,96.3253 L60.1391,96.3253 L60.1391,116.7253 L65.1781,116.7273 L65.1781,104.3373 L75.4681,116.7273 L79.8511,116.7273 L79.8511,96.3253 L74.8091,96.3253 L74.8091,108.7173 Z" id="Fill-36" fill="#000000"></path>
                <path d="M19.6514,96.3252 L13.5174,96.3252 L8.4044,103.9772 L6.1404,103.9772 L6.1404,96.3252 L0.4734,96.3252 L0.4734,116.7252 L6.1404,116.7252 L6.1404,109.0762 L8.4044,109.0762 L13.5194,116.7252 L19.6514,116.7272 L12.8354,106.5262 L19.6514,96.3252 Z" id="Fill-38" fill="#000000"></path>
                <path d="M84.438,116.7275 L89.48,116.7255 L89.48,96.3255 L84.438,96.3255 L84.438,116.7275 Z" id="Fill-40" fill="#000000"></path>
                <path d="M126.8579,108.5039 L131.7419,108.5039 L131.7419,111.4979 C130.6919,112.0369 129.3749,112.3679 128.0579,112.3679 C124.5509,112.3679 122.0649,110.2399 122.0669,106.5569 C122.0649,102.8119 124.5509,100.6839 127.8159,100.6839 C130.0649,100.6839 131.8909,101.3729 133.4179,102.5709 L135.7229,98.7679 C133.6869,97.1479 131.0209,96.0399 127.7249,96.0399 C121.7039,96.0399 116.8809,99.9329 116.8809,106.5569 C116.8809,113.1149 121.7039,117.0129 127.7249,117.0109 C130.8429,117.0129 134.6159,115.6929 136.5049,114.1659 L136.5049,104.6689 L126.8579,104.6689 L126.8579,108.5039 Z" id="Fill-42" fill="#000000"></path>
                <path d="M108.7397,108.7173 L98.4487,96.3253 L94.0677,96.3253 L94.0677,116.7253 L99.1077,116.7273 L99.1077,104.3373 L109.3997,116.7273 L113.7797,116.7253 L113.7797,96.3253 L108.7397,96.3253 L108.7397,108.7173 Z" id="Fill-44" fill="#000000"></path>
                <path d="M54.2192,84.1484 L79.4962,84.1484 L51.4112,42.1144 L79.4952,0.0814 L54.2192,0.0814 L33.1542,31.6064 L23.8262,31.6064 L23.8262,0.0814 L0.4732,0.0814 L0.4732,84.1464 L23.8262,84.1464 L23.8262,52.6224 L33.1562,52.6224 L54.2192,84.1484 Z" id="Fill-46" fill="#000000"></path>
                <path d="M31.9468,96.3252 L25.8118,96.3252 L18.9948,106.5262 L25.8118,116.7252 L31.9468,116.7252 L26.8348,109.0762 L33.4878,109.0762 L33.4878,103.9772 L26.8348,103.9772 L31.9468,96.3252 Z" id="Fill-48" fill="#E13423"></path>
                <path d="M136.5054,31.6064 L109.0894,31.6064 L130.1554,0.0814 L104.8784,0.0814 L76.7924,42.1144 L104.8784,84.1484 L130.1554,84.1484 L109.0894,52.6224 L136.5024,52.6224 L136.5054,31.6064 Z" id="Fill-50" fill="#E13423"></path>
            </g>
        </g>
    </g>
</svg>