<?xml version="1.0" encoding="UTF-8"?>
<svg width="171px" height="127px" viewBox="0 0 171 127" version="1.1" xmlns="http://www.w3.org/2000/svg" xmlns:xlink="http://www.w3.org/1999/xlink" xmlns:sketch="http://www.bohemiancoding.com/sketch/ns">
    <!-- Generator: Sketch 3.1.1 (8761) - http://www.bohemiancoding.com/sketch -->
    <title>phpday</title>
    <desc>Created with Sketch.</desc>
    <defs></defs>
    <g id="Page-1" stroke="none" stroke-width="1" fill="none" fill-rule="evenodd" sketch:type="MSPage">
        <g id="GRUSP-TuttifruttiPlus" sketch:type="MSLayerGroup" transform="translate(-307.000000, -68.000000)">
            <g id="phpday" transform="translate(308.000000, 68.000000)" sketch:type="MSShapeGroup">
                <path d="M42.4443,110.6577 C41.1603,110.6577 39.9263,111.2737 39.3093,111.9437 L39.3093,117.3827 C40.0333,118.0797 41.2133,118.6417 42.4443,118.6417 C44.7493,118.6417 46.2493,117.0617 46.2493,114.6767 C46.2493,112.2647 44.7763,110.6577 42.4443,110.6577 M43.4903,121.9097 C41.6953,121.9097 40.2743,121.2407 39.3093,120.3307 L39.3093,126.6797 L35.5593,126.6797 L35.5593,107.6307 L39.3093,107.6307 L39.3093,109.0767 C40.2473,108.0847 41.6143,107.3887 43.4903,107.3887 C47.4013,107.3887 50.0543,110.4157 50.0543,114.6767 C50.0543,118.8827 47.4013,121.9097 43.4903,121.9097" id="Fill-52" fill="#000000"></path>
                <path d="M56.6201,102.6196 L56.6201,109.2906 C57.6641,108.1396 59.2201,107.3896 61.2551,107.3896 C65.0581,107.3896 66.6401,110.1226 66.6401,113.5776 L66.6401,121.6426 L62.8901,121.6426 L62.8901,114.1946 C62.8901,112.1306 62.0331,110.8446 59.9951,110.8446 C58.1471,110.8446 57.0761,112.1836 56.6201,113.3096 L56.6201,121.6426 L52.8681,121.6426 L52.8681,102.6196 L56.6201,102.6196 Z" id="Fill-54" fill="#000000"></path>
                <path d="M77.0381,110.6577 C75.7511,110.6577 74.5181,111.2737 73.9011,111.9437 L73.9011,117.3827 C74.6271,118.0797 75.8051,118.6417 77.0381,118.6417 C79.3421,118.6417 80.8421,117.0617 80.8421,114.6767 C80.8421,112.2647 79.3691,110.6577 77.0381,110.6577 M78.0831,121.9097 C76.2881,121.9097 74.8671,121.2407 73.9011,120.3307 L73.9011,126.6797 L70.1521,126.6797 L70.1521,107.6307 L73.9011,107.6307 L73.9011,109.0767 C74.8411,108.0847 76.2081,107.3887 78.0831,107.3887 C81.9951,107.3887 84.6471,110.4157 84.6471,114.6767 C84.6471,118.8827 81.9951,121.9097 78.0831,121.9097" id="Fill-56" fill="#000000"></path>
                <path d="M94.2402,118.6421 C95.5262,118.6421 96.7592,117.9991 97.4012,117.3561 L97.4012,111.9701 C96.6782,111.2461 95.4732,110.6581 94.2402,110.6581 C91.9342,110.6581 90.4342,112.2381 90.4342,114.6231 C90.4342,117.0351 91.9342,118.6421 94.2402,118.6421 M93.1942,107.3891 C94.9642,107.3891 96.4352,108.0851 97.4012,109.0241 L97.4012,102.6201 L101.1522,102.6201 L101.1522,121.6431 L97.4012,121.6431 L97.4012,120.1961 C96.4642,121.1881 95.0692,121.9101 93.1942,121.9101 C89.2562,121.9101 86.6032,118.8571 86.6032,114.6231 C86.6032,110.3901 89.2562,107.3891 93.1942,107.3891" id="Fill-58" fill="#000000"></path>
                <path d="M111.6035,118.6421 C112.8875,118.6421 114.1215,117.9991 114.7625,117.3561 L114.7625,111.9701 C114.0415,111.2461 112.8335,110.6581 111.6035,110.6581 C109.2995,110.6581 107.7985,112.2381 107.7985,114.6231 C107.7985,117.0351 109.2995,118.6421 111.6035,118.6421 M110.5575,107.3891 C112.3255,107.3891 113.7995,108.0851 114.7625,109.0241 L114.7625,107.6301 L118.5155,107.6301 L118.5155,121.6431 L114.7625,121.6431 L114.7625,120.1961 C113.8275,121.1881 112.4325,121.9101 110.5575,121.9101 C106.6195,121.9101 103.9665,118.8571 103.9665,114.6231 C103.9665,110.3901 106.6195,107.3891 110.5575,107.3891" id="Fill-60" fill="#000000"></path>
                <path d="M135.8516,107.6304 L130.0376,121.7764 C128.6436,125.2864 127.2246,126.9474 124.0896,126.9474 C122.8016,126.9474 121.5706,126.4654 120.8736,126.0104 L121.4366,122.9834 C122.1076,123.3574 123.0716,123.7864 124.0896,123.7864 C125.3216,123.7864 125.8836,123.1974 126.4206,121.9904 L126.7136,121.2684 L120.3386,107.6304 L124.4896,107.6304 L128.3486,117.5434 L132.0756,107.6304 L135.8516,107.6304 Z" id="Fill-62" fill="#000000"></path>
                <path d="M169.9844,29.4209 C169.9844,14.2139 158.4104,1.7139 143.5924,0.2429 C141.9724,0.2429 140.6604,1.5559 140.6604,3.1749 L140.6604,55.9599 C140.6604,57.5789 141.9724,58.8919 143.5924,58.8919 C158.4104,57.4209 169.9844,44.9189 169.9844,29.7139 C169.9844,29.6649 169.9824,29.6159 169.9804,29.5669 C169.9824,29.5189 169.9844,29.4689 169.9844,29.4209 M99.6074,22.7479 C99.6074,20.3109 98.1214,18.2209 96.0054,17.3359 C92.5924,15.9409 88.8594,15.1699 84.9434,15.1699 C81.0294,15.1699 77.2964,15.9409 73.8824,17.3359 C71.7684,18.2209 70.2824,20.3109 70.2824,22.7479 C70.2824,22.7639 70.2834,22.7819 70.2834,22.7979 L70.2834,66.1879 C70.2834,66.2059 70.2824,66.2209 70.2824,66.2379 C70.2824,68.6749 71.7684,70.7659 73.8824,71.6509 C77.2964,73.0449 81.0294,73.8169 84.9434,73.8179 C88.8594,73.8169 92.5924,73.0449 96.0054,71.6509 C98.1214,70.7659 99.6074,68.6749 99.6074,66.2379 C99.6074,66.2209 99.6034,66.2059 99.6034,66.1879 L99.6034,22.7979 C99.6034,22.7819 99.6074,22.7639 99.6074,22.7479 M131.8634,0.0979 L120.1334,0.0979 L120.1334,0.2429 C116.2194,0.2429 112.4854,1.0139 109.0724,2.4099 C106.9584,3.2949 105.4724,5.3839 105.4724,7.8219 C105.4724,7.8379 105.4744,7.8549 105.4744,7.8709 L105.4744,81.1149 C105.4744,81.1329 105.4724,81.1479 105.4724,81.1659 C105.4724,83.6029 106.9584,85.6929 109.0724,86.5779 C112.4854,87.9739 116.2194,88.7439 120.1334,88.7439 L120.1334,88.8899 L131.8634,88.8899 C133.4824,88.8899 134.7964,87.5789 134.7964,85.9579 L134.7964,3.0279 C134.7964,1.4089 133.4824,0.0979 131.8634,0.0979 M26.2974,0.2429 C11.4804,1.7139 -0.0946,14.2139 -0.0946,29.4209 C-0.0946,29.4689 -0.0926,29.5189 -0.0906,29.5669 C-0.0926,29.6159 -0.0946,29.6649 -0.0946,29.7139 C-0.0946,44.9189 11.4804,57.4209 26.2974,58.8919 C27.9184,58.8919 29.2294,57.5789 29.2294,55.9599 L29.2294,3.1749 C29.2294,1.5559 27.9184,0.2429 26.2974,0.2429 M64.4184,7.8219 C64.4184,5.3839 62.9324,3.2949 60.8174,2.4099 C57.4044,1.0139 53.6704,0.2429 49.7564,0.2429 L49.7564,0.0979 L38.0264,0.0979 C36.4074,0.0979 35.0934,1.4089 35.0934,3.0279 L35.0934,85.9579 C35.0934,87.5789 36.4074,88.8899 38.0264,88.8899 L49.7564,88.8899 L49.7564,88.7439 C53.6704,88.7439 57.4044,87.9739 60.8174,86.5779 C62.9324,85.6929 64.4184,83.6029 64.4184,81.1659 C64.4184,81.1479 64.4164,81.1329 64.4164,81.1149 L64.4164,7.8709 C64.4164,7.8549 64.4184,7.8379 64.4184,7.8219" id="Fill-97" fill="#6181B6"></path>
            </g>
        </g>
    </g>
</svg>