<svg xmlns="http://www.w3.org/2000/svg" viewBox="0 0 623.62 255.12"><defs><style>.cls-1{fill:#fff;}.cls-2{fill:#065da9;}.cls-3{fill:#8eaed4;}.cls-4{fill:#5887c0;}</style></defs><title>mfm</title><g id="BG"><rect class="cls-1" width="623.62" height="255.12"/></g><g id="Logo"><path class="cls-2" d="M339.94,34.14h65.29V99.43a13.7,13.7,0,0,0,3.86,9.54L419,119.23V26.77a6.39,6.39,0,0,0-6.39-6.39H320.13l10.28,9.9A13.67,13.67,0,0,0,339.94,34.14Z"/><path class="cls-3" d="M218.39,100.13v-66h66.27a13.7,13.7,0,0,0,9.54-3.86l10.26-9.92H212a7.39,7.39,0,0,0-7.37,7.37v91.49l9.56-9.21A13.73,13.73,0,0,0,218.39,100.13Z"/><path class="cls-2" d="M285.37,221h-67V154a13.7,13.7,0,0,0-4.2-9.88l-9.57-9.23v92.47a7.39,7.39,0,0,0,7.37,7.37h92.47l-9.23-9.57A13.71,13.71,0,0,0,285.37,221Z"/><path class="cls-3" d="M405.23,154.71V221h-66a13.7,13.7,0,0,0-9.88,4.2l-9.23,9.57H412.6a6.39,6.39,0,0,0,6.39-6.39V134.89l-9.92,10.26A13.8,13.8,0,0,0,405.23,154.71Z"/><rect class="cls-2" x="304.13" y="55.29" width="17.34" height="143.55"/><rect class="cls-4" x="273.9" y="89.48" width="17.34" height="109.36"/><rect class="cls-4" x="333.38" y="89.48" width="17.34" height="109.36"/><rect class="cls-3" x="362.86" y="127.84" width="17.34" height="71.02"/><rect class="cls-3" x="244.41" y="127.84" width="17.34" height="71.02"/></g></svg>