<svg id="Layer_2" data-name="Layer 2" xmlns="http://www.w3.org/2000/svg" viewBox="0 0 353 71"><defs><style>.cls-1{fill:#fff;stroke:#000;stroke-miterlimit:10;}.cls-2{fill:#d92428;}.cls-3{fill:#221f20;}</style></defs><title>toms-hardware</title><rect class="cls-1" x="0.5" y="0.5" width="352" height="70"/><polygon class="cls-2" points="135.86 12.84 135.86 25.57 125.32 25.57 125.32 12.84 119.24 12.84 119.24 43.98 125.32 43.98 125.32 30.95 135.86 30.95 135.86 43.98 141.94 43.98 141.94 12.84 135.86 12.84"/><path class="cls-2" d="M158.06,21.53l3.8,11.33h-7.74Zm-2.54-9.18L144.2,43.48h6.34L152.41,38h11.07l1.83,5.51h6.34L160.29,12.34h-4.77Z" transform="translate(0.5 0.5)"/><path class="cls-2" d="M217.14,19.69a5.42,5.42,0,0,0-4.55-1.92H208V38.06h4.59a5.43,5.43,0,0,0,4.55-1.92c1.14-1.4,1.31-3.63,1.31-8.35s-0.18-6.69-1.31-8.09m4.24,20.82a11.33,11.33,0,0,1-8.22,3H201.93V12.34h11.24a11.33,11.33,0,0,1,8.22,3c3.5,3.5,3.15,7.78,3.15,12.46s0.35,9.23-3.15,12.73" transform="translate(0.5 0.5)"/><polygon class="cls-2" points="258.27 12.84 253.42 32.48 247.73 12.84 243.18 12.84 237.5 32.48 232.69 12.84 226.35 12.84 234.66 43.98 239.73 43.98 245.46 25.09 251.19 43.98 256.26 43.98 264.61 12.84 258.27 12.84"/><path class="cls-2" d="M276.66,21.53l3.8,11.33h-7.74Zm-2.54-9.18L262.8,43.48h6.34L271,38h11.07l1.84,5.51h6.34L278.89,12.34h-4.76Z" transform="translate(0.5 0.5)"/><path class="cls-2" d="M304.83,17.77H299.1V26h5.73c2.67,0,4.42-1.71,4.42-4.11s-1.75-4.11-4.42-4.11m4.73,25.71-6.08-12.42H299.1V43.48H293V12.34h12.2c6.34,0,10.1,4.33,10.1,9.53a8.38,8.38,0,0,1-5.69,8.18l7,13.43h-7Z" transform="translate(0.5 0.5)"/><polygon class="cls-2" points="321.03 12.84 321.03 43.98 341.54 43.98 341.54 38.56 327.1 38.56 327.1 30.99 339.39 30.99 339.39 25.57 327.1 25.57 327.1 18.27 341.54 18.27 341.54 12.84 321.03 12.84"/><path class="cls-2" d="M191,30.06a8.39,8.39,0,0,0,5.68-8.18,9.16,9.16,0,0,0-7-9.14v6.53a4,4,0,0,1,.91,2.61c0,2.41-1.75,4.11-4.42,4.11h-4.08v5.07h2.73l6.08,12.42h7Z" transform="translate(0.5 0.5)"/><path class="cls-2" d="M187.52,13.44l0,3.53a1.3,1.3,0,0,1-1.32,1.27l-0.81-.05a1.21,1.21,0,0,1-1.22-.74c0.1-.48-0.57-1-1.64-1-1.59-.06-2.64.89-2.63,1.7,0,0.29,0,1.36,0,1.36l-4.76-.06,0-.78s0-.19,0-0.62a1.63,1.63,0,0,0-1.59-1.59,11,11,0,0,0-7.15,2.88l-0.76-.73c4.54-7.37,9.37-6.92,11-6.89L180,11.83c0.84,0,1.59,1.65,2.88,1.74a2.06,2.06,0,0,0,1.41-.52,1.14,1.14,0,0,1,1.21-1l0.75,0a1.31,1.31,0,0,1,1.27,1.33m-12.39,8.09,4.73,0.15,0.68,21a1.75,1.75,0,0,1-1.79,1.72l-2.55-.08a1.75,1.75,0,0,1-1.72-1.79Z" transform="translate(0.5 0.5)"/><polygon points="15.8 51.49 15.8 52.47 17.79 52.47 17.79 58.69 18.88 58.69 18.88 52.47 20.86 52.47 20.86 51.49 15.8 51.49"/><polygon points="27.27 51.49 27.27 54.56 24.35 54.56 24.35 51.49 23.25 51.49 23.25 58.69 24.35 58.69 24.35 55.54 27.27 55.54 27.27 58.69 28.36 58.69 28.36 51.49 27.27 51.49"/><polygon points="31.39 51.49 31.39 58.69 36 58.69 36 57.71 32.48 57.71 32.48 55.54 35.48 55.54 35.48 54.57 32.48 54.57 32.48 52.47 36 52.47 36 51.49 31.39 51.49"/><path d="M44,52.61l1.09,3.2H42.84ZM43.5,51l-2.64,7.2H42l0.5-1.45h2.84l0.5,1.45H47L44.38,51H43.5Z" transform="translate(0.5 0.5)"/><path d="M51.66,58.25a2.44,2.44,0,0,1-2.58-2.49V51h1.09v4.72a1.49,1.49,0,1,0,3,0V51h1.09v4.77a2.45,2.45,0,0,1-2.59,2.49" transform="translate(0.5 0.5)"/><polygon points="57.03 51.49 57.03 52.47 59.02 52.47 59.02 58.69 60.11 58.69 60.11 52.47 62.09 52.47 62.09 51.49 57.03 51.49"/><polygon points="68.5 51.49 68.5 54.56 65.58 54.56 65.58 51.49 64.48 51.49 64.48 58.69 65.58 58.69 65.58 55.54 68.5 55.54 68.5 58.69 69.59 58.69 69.59 51.49 68.5 51.49"/><path d="M75.52,52.35a1.51,1.51,0,0,0-2.14,0C73,52.73,73,53.14,73,54.58s0.07,1.85.42,2.24a1.51,1.51,0,0,0,2.14,0c0.35-.38.42-0.79,0.42-2.24s-0.07-1.85-.42-2.23m0.83,5.13a2.6,2.6,0,0,1-1.9.77,2.57,2.57,0,0,1-1.89-.77c-0.71-.71-0.7-1.51-0.7-2.89s0-2.18.7-2.89a2.73,2.73,0,0,1,3.79,0C77.06,52.4,77,53.2,77,54.58s0,2.19-.69,2.89" transform="translate(0.5 0.5)"/><path d="M82.52,52H80.9v2.26h1.62a1.13,1.13,0,1,0,0-2.26m1.26,6.22-1.52-3H80.9v3H79.81V51H82.6a2.06,2.06,0,0,1,2.24,2.1A1.89,1.89,0,0,1,83.4,55l1.66,3.19H83.78Z" transform="translate(0.5 0.5)"/><rect x="88.08" y="51.49" width="1.09" height="7.2"/><polygon points="91.57 51.49 91.57 52.47 93.55 52.47 93.55 58.69 94.64 58.69 94.64 52.47 96.63 52.47 96.63 51.49 91.57 51.49"/><polygon points="102.34 51.49 100.83 54.65 99.33 51.49 98.13 51.49 100.29 55.72 100.29 58.69 101.38 58.69 101.38 55.72 103.53 51.49 102.34 51.49"/><path d="M112.15,52.35a1.51,1.51,0,0,0-2.14,0c-0.35.38-.42,0.79-0.42,2.23s0.07,1.85.42,2.24a1.51,1.51,0,0,0,2.14,0c0.35-.38.42-0.79,0.42-2.24s-0.07-1.85-.42-2.23M113,57.48a2.72,2.72,0,0,1-3.79,0c-0.71-.71-0.7-1.51-0.7-2.89s0-2.18.7-2.89a2.73,2.73,0,0,1,3.79,0c0.71,0.71.69,1.51,0.69,2.89s0,2.19-.69,2.89" transform="translate(0.5 0.5)"/><polygon points="121.26 51.49 121.26 56.54 117.94 51.49 116.94 51.49 116.94 58.69 118.03 58.69 118.03 53.62 121.36 58.69 122.36 58.69 122.36 51.49 121.26 51.49"/><polygon points="128.33 51.49 128.33 52.47 130.31 52.47 130.31 58.69 131.4 58.69 131.4 52.47 133.39 52.47 133.39 51.49 128.33 51.49"/><polygon points="135.78 51.49 135.78 58.69 140.38 58.69 140.38 57.71 136.87 57.71 136.87 55.54 139.87 55.54 139.87 54.57 136.87 54.57 136.87 52.47 140.38 52.47 140.38 51.49 135.78 51.49"/><path d="M144.86,58.25a2.62,2.62,0,0,1-1.89-.77c-0.71-.71-0.7-1.51-0.7-2.9s0-2.18.7-2.89a2.61,2.61,0,0,1,1.89-.77,2.48,2.48,0,0,1,2.57,2.22h-1.11a1.49,1.49,0,0,0-2.52-.8c-0.35.38-.43,0.8-0.43,2.24s0.08,1.86.43,2.24a1.5,1.5,0,0,0,2.53-.8h1.1a2.49,2.49,0,0,1-2.57,2.21" transform="translate(0.5 0.5)"/><polygon points="154.55 51.49 154.55 54.56 151.62 54.56 151.62 51.49 150.53 51.49 150.53 58.69 151.62 58.69 151.62 55.54 154.55 55.54 154.55 58.69 155.64 58.69 155.64 51.49 154.55 51.49"/><path class="cls-3" d="M24,44.39a6.18,6.18,0,0,1-6.61-6.52V26.58H15V22.25h2.41V15.5H23.1v6.74h4v4.33h-4V37.52a1.79,1.79,0,0,0,2,2.06h2.06v4.81H24Z" transform="translate(0.5 0.5)"/><path class="cls-3" d="M42.4,27.45a3.61,3.61,0,0,0-2.67-1,3.52,3.52,0,0,0-2.63,1c-1.18,1.18-1.31,3.15-1.31,5.52s0.13,4.38,1.31,5.56a3.5,3.5,0,0,0,2.63,1,3.59,3.59,0,0,0,2.67-1c1.18-1.18,1.32-3.19,1.32-5.56s-0.13-4.34-1.32-5.52m4.42,14.4a9.45,9.45,0,0,1-7.09,2.8,9.36,9.36,0,0,1-7-2.8C30.63,39.71,30.1,37.13,30.1,33s0.52-6.7,2.58-8.84a9.35,9.35,0,0,1,7-2.8,9.45,9.45,0,0,1,7.09,2.8c2.06,2.14,2.58,4.72,2.58,8.84s-0.52,6.74-2.58,8.88" transform="translate(0.5 0.5)"/><path class="cls-3" d="M79.38,44.39V30.61c0-3.11-2-4.16-3.76-4.16a3.68,3.68,0,0,0-3.81,4V44.39H66.12V30.61c0-3.11-2-4.16-3.77-4.16s-3.81,1.05-3.81,4.16V44.39H52.85V21.59h5.56v2.1a8,8,0,0,1,5.69-2.37,7.06,7.06,0,0,1,6,2.89A8.7,8.7,0,0,1,77,21.32a8,8,0,0,1,5.6,2,8.59,8.59,0,0,1,2.5,6.48V44.39H79.38Z" transform="translate(0.5 0.5)"/><polygon class="cls-3" points="88.62 23.67 88.62 13.73 94.57 13.73 94.57 19.16 88.62 23.67"/><path class="cls-3" d="M102,44.66c-3.59,0-6.83-.39-9.72-3.28L96,37.65a8.3,8.3,0,0,0,6.08,2.14c2,0,4-.65,4-2.37,0-1.13-.62-1.92-2.41-2.1L100.15,35c-4.11-.4-6.65-2.19-6.65-6.39,0-4.73,4.15-7.27,8.79-7.27,3.55,0,6.53.61,8.72,2.67l-3.5,3.55a7.93,7.93,0,0,0-5.3-1.53C99.94,26,99,27.06,99,28.2c0,0.83.35,1.79,2.37,2l3.59,0.35c4.51,0.44,6.79,2.85,6.79,6.7,0,5-4.29,7.44-9.67,7.44" transform="translate(0.5 0.5)"/></svg>