<svg id="Layer_1" data-name="Layer 1" xmlns="http://www.w3.org/2000/svg" xmlns:xlink="http://www.w3.org/1999/xlink" viewBox="0 0 623.62 255.12"><defs><style>.cls-1{fill:none;}.cls-2{fill:#fff;}.cls-3{clip-path:url(#clip-path);}.cls-4{font-size:29.48px;font-family:EurostileLTStd-Ex2, EurostileLTStd Ex2;}.cls-4,.cls-8{fill:#231f20;}.cls-5{letter-spacing:-0.09em;}.cls-6{fill:#39b54a;}.cls-7{fill:#eb0029;}.cls-9{clip-path:url(#clip-path-2);}</style><clipPath id="clip-path"><rect class="cls-1" x="36.54" y="42.58" width="550.53" height="169.96"/></clipPath><clipPath id="clip-path-2"><rect class="cls-1" x="-62.94" y="-259.09" width="736.98" height="736.98"/></clipPath></defs><title>wdi</title><rect class="cls-2" width="623.62" height="255.12"/><g class="cls-3"><text class="cls-4" transform="translate(44.93 204.32)">WEB DEVELOPER I<tspan class="cls-5" x="220.32" y="0">T</tspan><tspan x="232.29" y="0">ALIANI</tspan></text><rect class="cls-6" x="36.8" y="163.92" width="183.43" height="7.74"/><rect class="cls-2" x="220.22" y="163.92" width="183.43" height="7.74"/><rect class="cls-7" x="403.65" y="163.92" width="183.43" height="7.74"/><polygon class="cls-8" points="36.54 42.58 66.77 42.58 88.22 120.99 88.5 120.99 114.14 42.58 142.83 42.58 168.46 120.99 168.74 120.99 190.19 42.58 220.42 42.58 187.68 149.29 152.16 149.29 128.62 78.84 128.34 78.84 104.8 149.29 69.28 149.29 36.54 42.58"/><g class="cls-9"><path class="cls-8" d="M240.46,42.58h98.75c32.72,0,44.22,10.76,44.22,37.14v32.43c0,26.38-11.5,37.14-44.22,37.14H240.46Zm32.72,79.3h58.07c14,0,19.46-4,19.46-19.16V88.27c0-15.18-5.45-19.16-19.46-19.16H273.17Z"/><polygon class="cls-8" points="574.61 67.94 574.61 42.58 415.96 42.58 415.96 67.94 480.41 67.94 480.41 123.93 415.96 123.93 415.96 149.29 574.61 149.29 574.61 123.93 510.16 123.93 510.16 67.94 574.61 67.94"/></g></g></svg>