<svg id="Layer_1" data-name="Layer 1" xmlns="http://www.w3.org/2000/svg" xmlns:xlink="http://www.w3.org/1999/xlink" viewBox="0 0 623.62 255.12"><defs><style>.cls-1{fill:none;}.cls-2{fill:#fff;}.cls-3{clip-path:url(#clip-path);}.cls-4{fill:#231f20;}.cls-5{fill:#39b54a;}.cls-6{fill:#eb0029;}.cls-7{clip-path:url(#clip-path-2);}</style><clipPath id="clip-path"><rect class="cls-1" x="36.54" y="42.58" width="550.53" height="169.96"/></clipPath><clipPath id="clip-path-2"><rect class="cls-1" x="-62.94" y="-259.09" width="736.98" height="736.98"/></clipPath></defs><title>webdeveloperitaliani</title><rect class="cls-2" width="623.62" height="255.12"/><g class="cls-3"><path class="cls-4" d="M45.11,183h2.83l7.46,18.66L62.71,183h3.71l7.22,18.75L81.19,183H84l-8.49,21.34H71.82l-7.25-18.75-7.25,18.75H53.6Z"/><path class="cls-4" d="M87,183h21v2.36H89.92v6.81h17.36v2.36H89.92V202H108.1v2.36H87Z"/><path class="cls-4" d="M112.5,183h18.22c4.42,0,5.66,2.3,5.66,4.75v1.83c0,1.53-.85,3.1-3.45,3.36V193c2.27.12,4.27,1,4.27,4.22v2.54c0,3-2.65,4.54-6.19,4.54H112.5Zm21,4.6c0-1.95-2.15-2.24-3-2.24H115.39v6.81H130.3c1.56,0,3.18-.5,3.18-2.62Zm.83,10c0-2.65-1.47-3.07-4.1-3.07H115.39V202h15.27c2.68,0,3.66-1,3.66-2.86Z"/><path class="cls-4" d="M156.36,183h17.25c7.16,0,9.11,2.24,9.11,10.67,0,7.84-1.95,10.67-9.2,10.67H156.36Zm23.47,9.64c0-6.16-1.92-7.28-5.45-7.28H159.25V202H173.9c3.51,0,5.93-.77,5.93-7.16Z"/><path class="cls-4" d="M187.81,183h21v2.36H190.7v6.81h17.36v2.36H190.7V202h18.19v2.36H187.81Z"/><path class="cls-4" d="M211.07,183h3.24l10.35,18.75L235,183h3.24l-11.82,21.34H222.9Z"/><path class="cls-4" d="M241.7,183h21v2.36H244.59v6.81H262v2.36H244.59V202h18.19v2.36H241.7Z"/><path class="cls-4" d="M267.17,183h2.89v19h16.57v2.36H267.17Z"/><path class="cls-4" d="M289.16,190.73c0-5.4,1.83-8,7.61-8h12.29c5.78,0,7.61,2.59,7.61,8v5.84c0,5.39-1.83,8-7.61,8H296.77c-5.78,0-7.61-2.59-7.61-8Zm24.62-1.09c0-3.71-2.24-4.54-5-4.54h-11.7c-2.77,0-5,.83-5,4.54v8c0,3.71,2.24,4.54,5,4.54h11.7c2.77,0,5-.83,5-4.54Z"/><path class="cls-4" d="M321.77,183h17.57c3.89,0,6.1.83,6.1,5.81,0,4.75-.38,7.13-6.66,7.13H324.66v8.4h-2.89Zm20.78,5.51c0-2.54-1.39-3.15-3.89-3.15h-14v8.23h14.24c2.3,0,3.66-.83,3.66-3Z"/><path class="cls-4" d="M349.45,183h21v2.36H352.34v6.81H369.7v2.36H352.34V202h18.19v2.36H349.45Z"/><path class="cls-4" d="M374.74,183h17.07c6.16,0,7.13,2,7.13,6v1.74c0,3-1.71,3.83-3.92,4v.06c2.95.53,3.66,2.06,3.66,4v5.45H396v-4.69c0-3.33-1.62-3.74-4.25-3.74H377.63v8.43h-2.89Zm16.74,10.55c3.21,0,4.57-.85,4.57-3.09v-1.95c0-2.39-1-3.15-5.28-3.15H377.63v8.2Z"/><path class="cls-4" d="M418.31,183h2.89v21.34h-2.89Z"/><path class="cls-4" d="M435.41,185.33H424.62V183h24.47v2.36H438.3v19h-2.89Z"/><path class="cls-4" d="M460,183h3.6l12.68,21.34H473l-2.65-4.51h-17.1l-2.65,4.51h-3.27Zm1.8,2.36-7.16,12.12H469Z"/><path class="cls-4" d="M479.57,183h2.89v19H499v2.36H479.57Z"/><path class="cls-4" d="M502.21,183h2.89v21.34h-2.89Z"/><path class="cls-4" d="M521.13,183h3.6l12.68,21.34h-3.27l-2.65-4.51h-17.1l-2.65,4.51h-3.27Zm1.8,2.36-7.16,12.12h14.33Z"/><path class="cls-4" d="M540.5,183h4.3l19.55,18.75V183h2.89v21.34h-4.3l-19.55-18.75v18.75H540.5Z"/><path class="cls-4" d="M572.81,183h2.89v21.34h-2.89Z"/><rect class="cls-5" x="36.8" y="163.92" width="183.43" height="7.74"/><rect class="cls-2" x="220.22" y="163.92" width="183.43" height="7.74"/><rect class="cls-6" x="403.65" y="163.92" width="183.43" height="7.74"/><polygon class="cls-4" points="36.54 42.58 66.77 42.58 88.22 120.99 88.5 120.99 114.14 42.58 142.83 42.58 168.46 120.99 168.74 120.99 190.19 42.58 220.42 42.58 187.68 149.29 152.16 149.29 128.62 78.84 128.34 78.84 104.8 149.29 69.28 149.29 36.54 42.58"/><g class="cls-7"><path class="cls-4" d="M240.46,42.58h98.75c32.72,0,44.22,10.76,44.22,37.14v32.43c0,26.38-11.5,37.14-44.22,37.14H240.46Zm32.72,79.3h58.07c14,0,19.46-4,19.46-19.16V88.27c0-15.18-5.45-19.16-19.46-19.16H273.17Z"/><polygon class="cls-4" points="574.61 67.94 574.61 42.58 415.96 42.58 415.96 67.94 480.41 67.94 480.41 123.93 415.96 123.93 415.96 149.29 574.61 149.29 574.61 123.93 510.16 123.93 510.16 67.94 574.61 67.94"/></g></g></svg>