<?xml version="1.0" encoding="utf-8"?>
<!-- Generator: Adobe Illustrator 16.0.0, SVG Export Plug-In . SVG Version: 6.00 Build 0)  -->
<!DOCTYPE svg PUBLIC "-//W3C//DTD SVG 1.1//EN" "http://www.w3.org/Graphics/SVG/1.1/DTD/svg11.dtd">
<svg version="1.1" id="Layer_1" xmlns="http://www.w3.org/2000/svg" xmlns:xlink="http://www.w3.org/1999/xlink" x="0px" y="0px"
	 width="512px" height="512px" viewBox="0 0 512 512" enable-background="new 0 0 512 512" xml:space="preserve">
<path fill="#333333" d="M24,0C10.746,0,0,10.746,0,24c0,13.258,10.746,24,24,24c13.255,0,24-10.742,24-24C48,10.746,37.255,0,24,0z
	 M29.142,24.01h-3.363c0,5.373,0,11.99,0,11.99h-4.983c0,0,0-6.551,0-11.99h-2.37v-4.236h2.37v-2.742
	c0-1.963,0.932-5.031,5.029-5.031l3.691,0.016v4.113c0,0-2.244,0-2.679,0c-0.437,0-1.058,0.217-1.058,1.154v2.49h3.8L29.142,24.01z"
	/>
<path fill="#333333" d="M72,0C58.746,0,48,10.746,48,24c0,13.258,10.746,24,24,24s24-10.742,24-24C96,10.746,85.254,0,72,0z
	 M81.543,19.107c0.01,0.211,0.015,0.422,0.015,0.637c0,6.506-4.953,14.01-14.01,14.01c-2.782,0-5.369-0.814-7.548-2.213
	c0.387,0.045,0.778,0.068,1.175,0.068c2.309,0,4.43-0.785,6.114-2.107c-2.153-0.041-3.973-1.465-4.598-3.418
	c0.3,0.055,0.608,0.088,0.926,0.088c0.45,0,0.885-0.062,1.296-0.174c-2.25-0.453-3.949-2.443-3.949-4.828c0-0.02,0-0.041,0-0.061
	c0.665,0.369,1.424,0.588,2.231,0.615c-1.321-0.883-2.19-2.391-2.19-4.1c0-0.902,0.243-1.748,0.667-2.475
	c2.427,2.979,6.057,4.939,10.148,5.145c-0.083-0.361-0.127-0.736-0.127-1.123c0-2.719,2.205-4.922,4.925-4.922
	c1.415,0,2.695,0.598,3.593,1.553c1.121-0.219,2.175-0.629,3.127-1.195c-0.369,1.152-1.148,2.115-2.165,2.725
	c0.996-0.117,1.945-0.383,2.827-0.773C83.341,17.547,82.506,18.414,81.543,19.107z"/>
<g>
	<path fill="#333333" d="M115.126,13.152c-1.906-0.057-3.186,1.859-2.855,4.361c0.328,2.506,2.14,4.254,4.047,4.312
		c1.906,0.057,3.001-1.555,2.673-4.061C118.664,15.264,117.032,13.211,115.126,13.152z"/>
	<path fill="#333333" d="M115.928,26.951c-2.842-0.033-5.249,1.793-5.249,3.91c0,2.16,2.052,3.959,4.893,3.959
		c3.995,0,5.386-1.688,5.386-3.85c0-0.262-0.032-0.516-0.091-0.762c-0.313-1.223-1.556-1.893-3.1-2.965
		C117.208,27.062,116.59,26.957,115.928,26.951z"/>
	<path fill="#333333" d="M120,0c-13.254,0-24,10.746-24,24c0,13.258,10.746,24,24,24c13.255,0,24-10.742,24-24
		C144,10.746,133.255,0,120,0z M121.834,17.66c0,1.564-0.866,2.824-2.089,3.779c-1.195,0.936-1.421,1.324-1.421,2.119
		c0,0.676,1.427,1.684,2.083,2.176c2.284,1.715,2.747,2.793,2.747,4.934c0,2.676-2.881,5.332-7.566,5.332
		c-4.11,0-7.579-1.67-7.579-4.344c0-2.713,2.877-5.543,6.987-5.543c0.448,0,0.858-0.012,1.283-0.012
		c-0.562-0.545-1.017-1.018-1.017-1.844c0-0.492,0.155-0.961,0.375-1.379c-0.223,0.014-0.451,0.029-0.686,0.029
		c-3.376,0-5.342-2.373-5.342-5.348c0-2.912,2.993-5.561,6.582-5.561c1.85,0,7.074,0,7.074,0l-1.581,1.662h-1.857
		C121.138,14.412,121.834,15.955,121.834,17.66z M131.991,17.225h-3.264v3.26h-1.632v-3.26h-3.262v-1.633h3.262v-3.264h1.632v3.264
		h3.264V17.225z"/>
</g>
<path fill="#333333" d="M120,48c-13.255,0-24,10.746-24,24c0,13.258,10.745,24,24,24s24-10.742,24-24C144,58.746,133.255,48,120,48z
	 M113.323,77.324c-2.939,0-5.323-2.385-5.323-5.324c0-2.938,2.384-5.322,5.323-5.322c2.938,0,5.323,2.385,5.323,5.322
	C118.646,74.939,116.262,77.324,113.323,77.324z M126.677,77.324c-2.938,0-5.322-2.385-5.322-5.324c0-2.938,2.384-5.322,5.322-5.322
	c2.939,0,5.323,2.385,5.323,5.322C132,74.939,129.616,77.324,126.677,77.324z"/>
<path fill="#333333" d="M72,48c-13.254,0-24,10.746-24,24c0,13.258,10.746,24,24,24s24-10.742,24-24C96,58.746,85.254,48,72,48z
	 M83.88,66.557c-1.342,7.553-8.833,13.951-11.088,15.414c-2.254,1.461-4.311-0.586-5.055-2.133
	c-0.855-1.768-3.413-11.332-4.082-12.123c-0.67-0.791-2.682,0.791-2.682,0.791L60,67.229c0,0,4.081-4.875,7.187-5.484
	c3.295-0.648,3.29,5.057,4.082,8.223c0.767,3.062,1.282,4.814,1.95,4.814c0.671,0,1.95-1.709,3.351-4.324
	c1.401-2.623-0.061-4.938-2.803-3.291C74.862,60.586,85.22,59.004,83.88,66.557z"/>
<g>
	<path fill="#333333" d="M23.788,68.344c0.187,0,0.333-0.049,0.44-0.152c0.11-0.102,0.166-0.246,0.166-0.424v-3.645
		c0-0.146-0.056-0.264-0.167-0.355c-0.111-0.09-0.258-0.135-0.439-0.135c-0.165,0-0.302,0.045-0.407,0.135
		c-0.103,0.092-0.155,0.209-0.155,0.355v3.645c0,0.184,0.05,0.324,0.146,0.424C23.469,68.297,23.607,68.344,23.788,68.344z"/>
	<path fill="#333333" d="M26.806,75.076c-0.188,0-0.375,0.047-0.562,0.145c-0.182,0.096-0.355,0.24-0.52,0.422V72.99h-1.228v8.236
		h1.228V80.76c0.158,0.188,0.334,0.322,0.52,0.41c0.186,0.092,0.396,0.133,0.635,0.133c0.359,0,0.636-0.111,0.824-0.344
		c0.192-0.23,0.286-0.559,0.286-0.986V76.6c0-0.498-0.1-0.875-0.304-1.137C27.484,75.205,27.191,75.076,26.806,75.076z
		 M26.738,79.803c0,0.195-0.035,0.334-0.104,0.418c-0.07,0.088-0.18,0.133-0.328,0.133c-0.104,0-0.199-0.023-0.293-0.068
		c-0.094-0.041-0.191-0.117-0.289-0.213v-3.785c0.084-0.086,0.166-0.146,0.25-0.188c0.086-0.039,0.172-0.059,0.258-0.059
		c0.163,0,0.291,0.053,0.379,0.158c0.086,0.105,0.127,0.26,0.127,0.469V79.803z"/>
	<polygon fill="#333333" points="15.385,74.189 16.799,74.189 16.799,81.227 18.168,81.227 18.168,74.189 19.584,74.189 
		19.584,72.99 15.385,72.99 	"/>
	<path fill="#333333" d="M22.37,79.764c-0.114,0.133-0.239,0.24-0.376,0.328c-0.137,0.086-0.251,0.127-0.339,0.127
		c-0.112,0-0.196-0.029-0.249-0.098c-0.049-0.064-0.074-0.166-0.074-0.311v-4.66h-1.215v5.08c0,0.363,0.072,0.629,0.213,0.811
		c0.143,0.186,0.353,0.273,0.635,0.273c0.228,0,0.463-0.062,0.705-0.193c0.243-0.129,0.477-0.316,0.7-0.562v0.668h1.214V75.15H22.37
		V79.764z"/>
	<path fill="#333333" d="M24,48C10.746,48,0,58.746,0,72c0,13.258,10.746,24,24,24c13.256,0,24-10.742,24-24
		C48,58.746,37.256,48,24,48z M26.895,62.643h1.365v5.131c0,0.158,0.033,0.271,0.088,0.342c0.057,0.074,0.151,0.109,0.279,0.109
		c0.1,0,0.229-0.047,0.382-0.141c0.152-0.098,0.293-0.215,0.421-0.361v-5.08h1.367v6.691H29.43v-0.74
		c-0.251,0.271-0.514,0.482-0.787,0.623c-0.272,0.141-0.536,0.217-0.793,0.217c-0.317,0-0.553-0.102-0.715-0.305
		c-0.159-0.195-0.24-0.494-0.24-0.893V62.643z M21.819,64.172c0-0.518,0.185-0.932,0.551-1.236c0.368-0.307,0.864-0.459,1.485-0.459
		c0.565,0,1.028,0.16,1.392,0.482c0.358,0.322,0.539,0.744,0.539,1.252v3.457c0,0.574-0.176,1.02-0.528,1.348
		c-0.356,0.324-0.844,0.488-1.465,0.488c-0.598,0-1.077-0.17-1.436-0.506c-0.357-0.338-0.538-0.789-0.538-1.357V64.172z
		 M18.096,60.264l0.999,3.627h0.097l0.953-3.627h1.563l-1.792,5.309v3.762h-1.537V65.74l-1.833-5.477H18.096z M36,79.354
		c0,2.42-1.964,4.387-4.384,4.387H16.383c-2.421,0-4.383-1.967-4.383-4.387V75.83c0-2.42,1.962-4.387,4.383-4.387h15.233
		c2.42,0,4.384,1.967,4.384,4.387V79.354z"/>
	<path fill="#333333" d="M30.471,75c-0.543,0-0.984,0.164-1.328,0.496c-0.345,0.33-0.516,0.764-0.516,1.289v2.727
		c0,0.586,0.158,1.047,0.469,1.377c0.312,0.338,0.74,0.502,1.284,0.502c0.604,0,1.061-0.156,1.362-0.469
		c0.308-0.316,0.459-0.785,0.459-1.41v-0.311h-1.25v0.275c0,0.357-0.043,0.59-0.12,0.695c-0.081,0.105-0.222,0.158-0.423,0.158
		c-0.193,0-0.332-0.062-0.412-0.186c-0.079-0.125-0.119-0.348-0.119-0.668v-1.143h2.324v-1.549c0-0.578-0.15-1.018-0.449-1.324
		C31.455,75.152,31.027,75,30.471,75z M30.951,77.389h-1.074v-0.613c0-0.254,0.041-0.439,0.127-0.545
		c0.084-0.113,0.223-0.17,0.416-0.17c0.184,0,0.322,0.057,0.404,0.17c0.083,0.105,0.127,0.291,0.127,0.545V77.389z"/>
</g>
</svg>
